<svg id="visual" viewBox="0 0 900 600" width="900" height="600" xmlns="http://www.w3.org/2000/svg" xmlns:xlink="http://www.w3.org/1999/xlink" version="1.1"><rect x="0" y="0" width="900" height="600" fill="#202020"></rect><path d="M0 197L12.5 176.7C25 156.3 50 115.7 75 112C100 108.3 125 141.7 150 161.2C175 180.7 200 186.3 225 184C250 181.7 275 171.3 300 156.8C325 142.3 350 123.7 375 124.5C400 125.3 425 145.7 450 163C475 180.3 500 194.7 525 191C550 187.3 575 165.7 600 146.5C625 127.3 650 110.7 675 121.7C700 132.7 725 171.3 750 170.3C775 169.3 800 128.7 825 112.5C850 96.3 875 104.7 887.5 108.8L900 113L900 0L887.5 0C875 0 850 0 825 0C800 0 775 0 750 0C725 0 700 0 675 0C650 0 625 0 600 0C575 0 550 0 525 0C500 0 475 0 450 0C425 0 400 0 375 0C350 0 325 0 300 0C275 0 250 0 225 0C200 0 175 0 150 0C125 0 100 0 75 0C50 0 25 0 12.5 0L0 0Z" fill="#3b3b3b" stroke-linecap="round" stroke-linejoin="miter"></path></svg>