<svg id="visual" viewBox="0 0 900 600" width="900" height="600" xmlns="http://www.w3.org/2000/svg" xmlns:xlink="http://www.w3.org/1999/xlink" version="1.1"><rect x="0" y="0" width="900" height="600" fill="#202020"></rect><defs><linearGradient id="grad1_0" x1="33.3%" y1="100%" x2="100%" y2="0%"><stop offset="20%" stop-color="#202020" stop-opacity="1"></stop><stop offset="80%" stop-color="#202020" stop-opacity="1"></stop></linearGradient></defs><defs><linearGradient id="grad2_0" x1="0%" y1="100%" x2="66.7%" y2="0%"><stop offset="20%" stop-color="#202020" stop-opacity="1"></stop><stop offset="80%" stop-color="#202020" stop-opacity="1"></stop></linearGradient></defs><g transform="translate(900, 600)"><path d="M-378.6 0C-372.5 -31.2 -366.4 -62.5 -361.3 -96.8C-356.1 -131.1 -351.9 -168.5 -327.9 -189.3C-303.9 -210.1 -260.1 -214.3 -234.1 -234.1C-208 -253.8 -199.8 -289.1 -179 -310C-158.2 -331 -124.8 -337.7 -92.9 -346.8C-61 -355.8 -30.5 -367.2 0 -378.6L0 0Z" fill="#d8d8d8"></path></g><g transform="translate(0, 0)"><path d="M378.6 0C368.6 30.3 358.6 60.7 353.5 94.7C348.5 128.8 348.5 166.6 327.9 189.3C307.3 212 266.1 219.6 240.4 240.4C214.7 261.2 204.5 295.3 182.5 316.1C160.5 336.9 126.8 344.4 94.5 352.6C62.1 360.8 31 369.7 0 378.6L0 0Z" fill="#d8d8d8"></path></g></svg>