<svg id="visual" viewBox="0 0 900 600" width="900" height="600" xmlns="http://www.w3.org/2000/svg" xmlns:xlink="http://www.w3.org/1999/xlink" version="1.1"><rect x="0" y="0" width="900" height="600" fill="#202020"></rect><path d="M0 197L12.5 195C25 193 50 189 75 203C100 217 125 249 150 249.8C175 250.7 200 220.3 225 212.2C250 204 275 218 300 215.8C325 213.7 350 195.3 375 169.7C400 144 425 111 450 107.8C475 104.7 500 131.3 525 144.7C550 158 575 158 600 163.8C625 169.7 650 181.3 675 202.8C700 224.3 725 255.7 750 240.2C775 224.7 800 162.3 825 135.7C850 109 875 118 887.5 122.5L900 127L900 0L887.5 0C875 0 850 0 825 0C800 0 775 0 750 0C725 0 700 0 675 0C650 0 625 0 600 0C575 0 550 0 525 0C500 0 475 0 450 0C425 0 400 0 375 0C350 0 325 0 300 0C275 0 250 0 225 0C200 0 175 0 150 0C125 0 100 0 75 0C50 0 25 0 12.5 0L0 0Z" fill="#ffffff" stroke-linecap="round" stroke-linejoin="miter"></path></svg>