<svg id="visual" viewBox="0 0 900 600" width="900" height="600" xmlns="http://www.w3.org/2000/svg" xmlns:xlink="http://www.w3.org/1999/xlink" version="1.1"><rect x="0" y="0" width="900" height="600" fill="#202020"></rect><defs><linearGradient id="grad1_0" x1="33.3%" y1="0%" x2="100%" y2="100%"><stop offset="20%" stop-color="#202020" stop-opacity="1"></stop><stop offset="80%" stop-color="#202020" stop-opacity="1"></stop></linearGradient></defs><defs><linearGradient id="grad2_0" x1="0%" y1="0%" x2="66.7%" y2="100%"><stop offset="20%" stop-color="#202020" stop-opacity="1"></stop><stop offset="80%" stop-color="#202020" stop-opacity="1"></stop></linearGradient></defs><g transform="translate(900, 0)"><path d="M0 351.5C-47.2 349.5 -94.4 347.5 -134.5 324.8C-174.7 302 -207.8 258.5 -215 215C-222.1 171.4 -203.3 127.7 -221.7 91.8C-240.2 56 -295.9 28 -351.5 0L0 0Z" fill="#d8d8d8"></path></g><g transform="translate(0, 600)"><path d="M0 -351.5C19.2 -288.6 38.4 -225.6 91.1 -219.9C143.7 -214.2 229.9 -265.7 248.6 -248.6C267.3 -231.5 218.6 -145.9 224.5 -93C230.4 -40.1 291 -20.1 351.5 0L0 0Z" fill="#d8d8d8"></path></g></svg>