<svg id="visual" viewBox="0 0 900 600" width="900" height="600" xmlns="http://www.w3.org/2000/svg" xmlns:xlink="http://www.w3.org/1999/xlink" version="1.1"><rect x="0" y="0" width="900" height="600" fill="#202020"></rect><path d="M0 401L12.5 403C25 405 50 409 75 395C100 381 125 349 150 348.2C175 347.3 200 377.7 225 385.8C250 394 275 380 300 382.2C325 384.3 350 402.7 375 428.3C400 454 425 487 450 490.2C475 493.3 500 466.7 525 453.3C550 440 575 440 600 434.2C625 428.3 650 416.7 675 395.2C700 373.7 725 342.3 750 357.8C775 373.3 800 435.7 825 462.3C850 489 875 480 887.5 475.5L900 471L900 601L887.5 601C875 601 850 601 825 601C800 601 775 601 750 601C725 601 700 601 675 601C650 601 625 601 600 601C575 601 550 601 525 601C500 601 475 601 450 601C425 601 400 601 375 601C350 601 325 601 300 601C275 601 250 601 225 601C200 601 175 601 150 601C125 601 100 601 75 601C50 601 25 601 12.5 601L0 601Z" fill="#ffffff" stroke-linecap="round" stroke-linejoin="miter"></path></svg>