<svg id="visual" viewBox="0 0 900 600" width="900" height="600" xmlns="http://www.w3.org/2000/svg" xmlns:xlink="http://www.w3.org/1999/xlink" version="1.1"><rect x="0" y="0" width="900" height="600" fill="#202020"></rect><path d="M0 417L21.5 421C43 425 86 433 128.8 427C171.7 421 214.3 401 257.2 393.2C300 385.3 343 389.7 385.8 398.7C428.7 407.7 471.3 421.3 514.2 420.3C557 419.3 600 403.7 642.8 405.2C685.7 406.7 728.3 425.3 771.2 418.8C814 412.3 857 380.7 878.5 364.8L900 349L900 601L878.5 601C857 601 814 601 771.2 601C728.3 601 685.7 601 642.8 601C600 601 557 601 514.2 601C471.3 601 428.7 601 385.8 601C343 601 300 601 257.2 601C214.3 601 171.7 601 128.8 601C86 601 43 601 21.5 601L0 601Z" fill="#ebebeb"></path><path d="M0 478L21.5 478C43 478 86 478 128.8 475.5C171.7 473 214.3 468 257.2 463.5C300 459 343 455 385.8 453.7C428.7 452.3 471.3 453.7 514.2 448C557 442.3 600 429.7 642.8 423.3C685.7 417 728.3 417 771.2 418.8C814 420.7 857 424.3 878.5 426.2L900 428L900 601L878.5 601C857 601 814 601 771.2 601C728.3 601 685.7 601 642.8 601C600 601 557 601 514.2 601C471.3 601 428.7 601 385.8 601C343 601 300 601 257.2 601C214.3 601 171.7 601 128.8 601C86 601 43 601 21.5 601L0 601Z" fill="#aeaeae"></path><path d="M0 469L21.5 471.7C43 474.3 86 479.7 128.8 481.3C171.7 483 214.3 481 257.2 480.5C300 480 343 481 385.8 486.2C428.7 491.3 471.3 500.7 514.2 496.2C557 491.7 600 473.3 642.8 473.3C685.7 473.3 728.3 491.7 771.2 496.3C814 501 857 492 878.5 487.5L900 483L900 601L878.5 601C857 601 814 601 771.2 601C728.3 601 685.7 601 642.8 601C600 601 557 601 514.2 601C471.3 601 428.7 601 385.8 601C343 601 300 601 257.2 601C214.3 601 171.7 601 128.8 601C86 601 43 601 21.5 601L0 601Z" fill="#747474"></path><path d="M0 498L21.5 503.3C43 508.7 86 519.3 128.8 520.3C171.7 521.3 214.3 512.7 257.2 509.2C300 505.7 343 507.3 385.8 503.8C428.7 500.3 471.3 491.7 514.2 495.3C557 499 600 515 642.8 523.5C685.7 532 728.3 533 771.2 531.2C814 529.3 857 524.7 878.5 522.3L900 520L900 601L878.5 601C857 601 814 601 771.2 601C728.3 601 685.7 601 642.8 601C600 601 557 601 514.2 601C471.3 601 428.7 601 385.8 601C343 601 300 601 257.2 601C214.3 601 171.7 601 128.8 601C86 601 43 601 21.5 601L0 601Z" fill="#3f3f3f"></path><path d="M0 573L21.5 568C43 563 86 553 128.8 549.7C171.7 546.3 214.3 549.7 257.2 548.8C300 548 343 543 385.8 541.2C428.7 539.3 471.3 540.7 514.2 543.7C557 546.7 600 551.3 642.8 556.5C685.7 561.7 728.3 567.3 771.2 564.8C814 562.3 857 551.7 878.5 546.3L900 541L900 601L878.5 601C857 601 814 601 771.2 601C728.3 601 685.7 601 642.8 601C600 601 557 601 514.2 601C471.3 601 428.7 601 385.8 601C343 601 300 601 257.2 601C214.3 601 171.7 601 128.8 601C86 601 43 601 21.5 601L0 601Z" fill="#101010"></path></svg>