<svg id="visual" viewBox="0 0 900 600" width="900" height="600" xmlns="http://www.w3.org/2000/svg" xmlns:xlink="http://www.w3.org/1999/xlink" version="1.1"><rect x="0" y="0" width="900" height="600" fill="#202020"></rect><defs><linearGradient id="grad1_0" x1="33.3%" y1="0%" x2="100%" y2="100%"><stop offset="20%" stop-color="#202020" stop-opacity="1"></stop><stop offset="80%" stop-color="#202020" stop-opacity="1"></stop></linearGradient></defs><defs><linearGradient id="grad2_0" x1="0%" y1="0%" x2="66.7%" y2="100%"><stop offset="20%" stop-color="#202020" stop-opacity="1"></stop><stop offset="80%" stop-color="#202020" stop-opacity="1"></stop></linearGradient></defs><g transform="translate(900, 0)"><path d="M0 351.5C-47.6 349.5 -95.3 347.4 -134.5 324.8C-173.8 302.1 -204.6 258.9 -217.8 217.8C-230.9 176.7 -226.4 137.7 -245.8 101.8C-265.1 65.9 -308.3 32.9 -351.5 0L0 0Z" fill="#d8d8d8"></path></g><g transform="translate(0, 600)"><path d="M0 -351.5C41 -319.9 82.1 -288.3 106.4 -256.8C130.7 -225.4 138.2 -194.1 178.2 -178.2C218.1 -162.3 290.5 -161.7 324.8 -134.5C359.1 -107.4 355.3 -53.7 351.5 0L0 0Z" fill="#d8d8d8"></path></g></svg>