<svg id="visual" viewBox="0 0 900 600" width="900" height="600" xmlns="http://www.w3.org/2000/svg" xmlns:xlink="http://www.w3.org/1999/xlink" version="1.1"><rect x="0" y="0" width="900" height="600" fill="#202020"></rect><path d="M0 488L10.7 493.5C21.3 499 42.7 510 64.2 509.5C85.7 509 107.3 497 128.8 496.5C150.3 496 171.7 507 193 510C214.3 513 235.7 508 257 504.7C278.3 501.3 299.7 499.7 321.2 507C342.7 514.3 364.3 530.7 385.8 525.7C407.3 520.7 428.7 494.3 450 483.7C471.3 473 492.7 478 514.2 491.8C535.7 505.7 557.3 528.3 578.8 525.7C600.3 523 621.7 495 643 482C664.3 469 685.7 471 707 478.7C728.3 486.3 749.7 499.7 771.2 510.3C792.7 521 814.3 529 835.8 528.2C857.3 527.3 878.7 517.7 889.3 512.8L900 508L900 601L889.3 601C878.7 601 857.3 601 835.8 601C814.3 601 792.7 601 771.2 601C749.7 601 728.3 601 707 601C685.7 601 664.3 601 643 601C621.7 601 600.3 601 578.8 601C557.3 601 535.7 601 514.2 601C492.7 601 471.3 601 450 601C428.7 601 407.3 601 385.8 601C364.3 601 342.7 601 321.2 601C299.7 601 278.3 601 257 601C235.7 601 214.3 601 193 601C171.7 601 150.3 601 128.8 601C107.3 601 85.7 601 64.2 601C42.7 601 21.3 601 10.7 601L0 601Z" fill="#ffffff" stroke-linecap="round" stroke-linejoin="miter"></path></svg>