<svg id="visual" viewBox="0 0 900 600" width="900" height="600" xmlns="http://www.w3.org/2000/svg" xmlns:xlink="http://www.w3.org/1999/xlink" version="1.1"><rect x="0" y="0" width="900" height="600" fill="#202020"></rect><path d="M0 166L10.7 172.8C21.3 179.7 42.7 193.3 64.2 185.2C85.7 177 107.3 147 128.8 137.8C150.3 128.7 171.7 140.3 193 152.3C214.3 164.3 235.7 176.7 257 190.7C278.3 204.7 299.7 220.3 321.2 220.3C342.7 220.3 364.3 204.7 385.8 181.7C407.3 158.7 428.7 128.3 450 123.2C471.3 118 492.7 138 514.2 146.7C535.7 155.3 557.3 152.7 578.8 139.7C600.3 126.7 621.7 103.3 643 105.2C664.3 107 685.7 134 707 154.3C728.3 174.7 749.7 188.3 771.2 186.5C792.7 184.7 814.3 167.3 835.8 156C857.3 144.7 878.7 139.3 889.3 136.7L900 134L900 0L889.3 0C878.7 0 857.3 0 835.8 0C814.3 0 792.7 0 771.2 0C749.7 0 728.3 0 707 0C685.7 0 664.3 0 643 0C621.7 0 600.3 0 578.8 0C557.3 0 535.7 0 514.2 0C492.7 0 471.3 0 450 0C428.7 0 407.3 0 385.8 0C364.3 0 342.7 0 321.2 0C299.7 0 278.3 0 257 0C235.7 0 214.3 0 193 0C171.7 0 150.3 0 128.8 0C107.3 0 85.7 0 64.2 0C42.7 0 21.3 0 10.7 0L0 0Z" fill="#ffffff" stroke-linecap="round" stroke-linejoin="miter"></path></svg>